<?xml version="1.0" standalone="no"?>
<!DOCTYPE svg PUBLIC "-//W3C//DTD SVG 20010904//EN"
 "http://www.w3.org/TR/2001/REC-SVG-20010904/DTD/svg10.dtd">
<svg version="1.0" xmlns="http://www.w3.org/2000/svg"
 width="944.000000pt" height="944.000000pt" viewBox="0 0 944.000000 944.000000"
 preserveAspectRatio="xMidYMid meet">
<metadata>
Created by potrace 1.11, written by Peter Selinger 2001-2013
</metadata>
<g transform="translate(0.000000,944.000000) scale(0.100000,-0.100000)"
fill="#000000" stroke="none">
<path d="M3485 9434 c-429 -10 -1260 -41 -1595 -59 -558 -30 -1323 -85 -1330
-96 -3 -4 -2 -180 2 -391 3 -210 11 -707 17 -1103 24 -1506 43 -2299 62 -2530
62 -754 206 -1444 409 -1955 158 -396 332 -741 527 -1040 473 -725 1177 -1356
1927 -1727 71 -35 134 -67 140 -72 20 -15 248 -112 368 -157 223 -84 600 -194
662 -194 15 0 113 22 219 49 864 222 1645 677 2277 1327 817 841 1328 1937
1515 3249 50 353 64 590 75 1210 6 319 17 947 25 1395 31 1633 35 1932 30
1941 -4 5 -25 9 -48 9 -23 0 -118 7 -212 15 -140 12 -581 41 -1060 70 -98 6
-644 29 -1085 46 -250 10 -2615 20 -2925 13z"/>
</g>
</svg>
