<?xml version="1.0" encoding="utf-8"?>
<!-- Generator: Adobe Illustrator 24.0.2, SVG Export Plug-In . SVG Version: 6.00 Build 0)  -->
<svg version="1.1" id="Слой_1" xmlns="http://www.w3.org/2000/svg" xmlns:xlink="http://www.w3.org/1999/xlink" x="0px" y="0px"
	 viewBox="0 0 418.9 102.3" style="enable-background:new 0 0 418.9 102.3;" xml:space="preserve">
<style type="text/css">
	.st0{fill-rule:evenodd;clip-rule:evenodd;fill:#397C23;}
	.st1{fill:#76B82A;}
	.st2{font-family:'EuropeNormal';}
	.st3{font-size:27.9841px;}
	.st4{fill:#DADADA;}
</style>
<g>
	<g>
		<path class="st0" d="M46.8,38.9v7.3h26.5v14.7H46.8c0,0,0,17.1,0,17.2c2.1,1,4.2,1.7,6.4,2.2C66.2,77.6,78.3,66,78.7,45.6l0.1-6.7
			H46.8z"/>
		<path class="st1" d="M78.8,38.9L79.1,23c-8.5-0.7-17.1-1-25.8-1c-8.7,0-17.3,0.3-25.8,1l0.2,12.4l0.2,10.2c0,0,0.1,9.4,3.3,16.2
			C36.3,74,46.9,78.1,46.9,78.1l0-17.2h26.5V46.2H46.8v-7.3H78.8z"/>
		<polygon points="104.1,33.3 104.1,37.1 112,37.1 112,41.4 104.1,41.4 104.1,48.5 98.9,48.5 98.9,29 112.7,29 112.7,33.3 		"/>
		<path d="M127.1,43.3h-4v5.2h-5.2V29h10c1.6,0,2.9,0.2,3.8,0.5c0.9,0.3,1.7,0.9,2.1,1.7c0.5,0.8,0.7,2.1,0.7,3.6
			c0,1.3-0.1,2.4-0.2,3c-0.1,0.7-0.4,1.3-1,1.8c-0.5,0.5-1.4,0.9-2.5,1.2v0.2c1.1,0,1.9,0.4,2.6,0.9c0.6,0.6,0.9,1.4,0.9,2.5v3.9
			h-5.2v-2.7C129.2,44.2,128.5,43.3,127.1,43.3 M123.1,38.8h4c0.7,0,1.2-0.1,1.5-0.3c0.3-0.2,0.5-0.5,0.6-0.9c0.1-0.4,0.1-1,0.1-1.9
			c0-0.9-0.1-1.5-0.4-1.8c-0.3-0.3-0.9-0.5-1.7-0.5h-4V38.8z"/>
		<polygon points="145.3,33.3 145.3,36.8 153.6,36.8 153.6,40.5 145.3,40.5 145.3,44.2 154.4,44.2 154.4,48.5 140.1,48.5 140.1,29 
			154.2,29 154.2,33.3 		"/>
		<polygon points="165.4,33.3 165.4,36.8 173.7,36.8 173.7,40.5 165.4,40.5 165.4,44.2 174.4,44.2 174.4,48.5 160.2,48.5 160.2,29 
			174.2,29 174.2,33.3 		"/>
		<path d="M180,48.5V29h9.9c1.8,0,3.3,0.2,4.5,0.7c1.1,0.5,2,1.3,2.5,2.4c0.5,1.1,0.8,2.6,0.8,4.4v4.1c0,1.8-0.2,3.3-0.7,4.5
			c-0.4,1.1-1.2,2-2.2,2.6c-1,0.6-2.5,0.8-4.2,0.8H180z M185.2,33.5V44h4.5c1.7,0,2.6-1.1,2.6-3.3v-4.1c0-0.8-0.1-1.5-0.3-1.9
			c-0.2-0.4-0.5-0.7-0.8-0.9c-0.4-0.2-0.9-0.2-1.5-0.2H185.2z"/>
		<path d="M211.8,48.7c-1.4,0-2.7-0.1-3.8-0.3c-1.1-0.2-2-0.6-2.8-1.1c-0.8-0.5-1.4-1.2-1.8-2.2c-0.4-0.9-0.6-2.1-0.6-3.6V36
			c0-1.5,0.2-2.7,0.7-3.6c0.4-0.9,1-1.7,1.8-2.2c0.8-0.5,1.7-0.9,2.8-1.1c1.1-0.2,2.3-0.3,3.8-0.3c1.4,0,2.7,0.1,3.8,0.3
			c1.1,0.2,2,0.6,2.8,1.1c0.8,0.5,1.4,1.2,1.8,2.2c0.4,0.9,0.6,2.1,0.6,3.6v5.5c0,1.5-0.2,2.6-0.6,3.6s-1,1.7-1.8,2.2
			c-0.8,0.5-1.7,0.9-2.8,1.1C214.5,48.6,213.2,48.7,211.8,48.7 M211.8,44.1c1,0,1.7-0.1,2.2-0.2c0.5-0.1,0.9-0.4,1.1-0.9
			c0.2-0.5,0.3-1.2,0.3-2.1v-4.4c0-0.7-0.1-1.3-0.2-1.7c-0.1-0.4-0.3-0.7-0.6-0.9c-0.3-0.2-0.6-0.3-1.1-0.4c-0.4-0.1-1-0.1-1.8-0.1
			c-1,0-1.7,0.1-2.2,0.2c-0.5,0.1-0.8,0.4-1.1,0.9c-0.2,0.4-0.4,1.1-0.4,2.1v4.4c0,1,0.1,1.7,0.4,2.1c0.2,0.4,0.6,0.7,1.1,0.9
			C210,44.1,210.8,44.1,211.8,44.1"/>
		<polygon points="230.9,33.6 231.4,48.5 226.2,48.5 226.2,29 234.4,29 238.2,41.3 238.3,41.3 241.9,29 250.3,29 250.3,48.5 
			245.1,48.5 245.6,33.6 245.5,33.6 240.5,48.5 236,48.5 231,33.6 		"/>
		<path d="M105.4,59.2v1.7h-3.6v12h-2.1v-12h-2.1v-1.7h2.1v-2c0-1.5,0.3-2.6,1-3.2c0.7-0.6,1.8-0.9,3.3-0.9l1.3,0.1v1.7
			c-0.4-0.1-0.7-0.1-1.1-0.1h-0.4c-0.8,0-1.3,0.2-1.6,0.5c-0.3,0.3-0.5,0.9-0.5,1.7v2.2H105.4z"/>
		<path d="M110.9,55.5h-2.1v-2.2h2.1V55.5z M110.9,72.8h-2.1V59.2h2.1V72.8z"/>
		<path d="M117.7,64.5v8.3h-2.1V59.2h1.9v1.7c0.5-0.8,1.2-1.3,2-1.6c0.7-0.2,1.6-0.4,2.7-0.4c1.9,0,3.1,0.3,3.9,1
			c0.7,0.7,1.1,2,1.1,3.8v9h-2.1V64c0-1.4-0.2-2.3-0.6-2.7c-0.4-0.4-1.3-0.6-2.7-0.6c-1.4,0-2.4,0.3-3.1,0.9
			C118,62.1,117.7,63.1,117.7,64.5"/>
		<path d="M141.1,66.1v-1.9c0-1.6-0.2-2.7-0.7-3.1c-0.5-0.4-1.6-0.6-3.3-0.6c-1.2,0-2.1,0.1-2.5,0.4c-0.4,0.3-0.7,0.8-0.7,1.7v0.4
			h-2.1c0-1.7,0.5-2.8,1.5-3.4c0.7-0.4,2-0.6,3.9-0.6c2.1,0,3.6,0.3,4.4,0.8c1,0.7,1.6,2,1.6,4v9h-1.9l0.1-1.7
			c-0.5,0.8-1,1.4-1.6,1.6c-0.6,0.2-1.6,0.3-3,0.3c-1.9,0-3.2-0.3-3.9-0.8c-1-0.6-1.4-1.8-1.4-3.6c0-1.6,0.5-2.8,1.4-3.4
			c0.8-0.5,2-0.8,3.8-0.8c1.6,0,2.6,0.1,3.2,0.3C140.3,65.1,140.8,65.5,141.1,66.1 M141.1,68.8c0-1.2-0.3-1.9-0.8-2.2
			c-0.6-0.3-1.8-0.5-3.7-0.5c-1.1,0-1.9,0.1-2.3,0.4c-0.5,0.3-0.8,1-0.8,1.9c0,1.1,0.2,1.9,0.7,2.3c0.5,0.4,1.3,0.6,2.5,0.6
			c1.6,0,2.7-0.1,3.2-0.3C140.7,70.8,141.1,70,141.1,68.8"/>
		<path d="M149.9,64.5v8.3h-2.1V59.2h1.9v1.7c0.5-0.8,1.2-1.3,2-1.6c0.7-0.2,1.6-0.4,2.7-0.4c1.9,0,3.1,0.3,3.9,1
			c0.7,0.7,1.1,2,1.1,3.8v9h-2.1V64c0-1.4-0.2-2.3-0.6-2.7c-0.4-0.4-1.3-0.6-2.7-0.6c-1.4,0-2.4,0.3-3.1,0.9
			C150.2,62.1,149.9,63.1,149.9,64.5"/>
		<path d="M173.4,67.9h2c0,2-0.5,3.4-1.4,4.2c-0.8,0.7-2.3,1-4.5,1c-2.3,0-3.8-0.5-4.6-1.5c-0.8-1-1.2-2.8-1.2-5.6
			c0-2.7,0.4-4.6,1.2-5.6c0.8-1,2.3-1.5,4.6-1.5c1.9,0,3.3,0.3,4.1,0.8c1,0.7,1.6,1.8,1.6,3.4v0.4h-2c0-1.1-0.2-1.9-0.7-2.3
			c-0.5-0.4-1.5-0.7-3.1-0.7c-1.5,0-2.5,0.3-3,1c-0.5,0.7-0.7,2.1-0.7,4.3c0,2.2,0.2,3.6,0.7,4.4c0.5,0.7,1.5,1.1,3,1.1
			c1.6,0,2.6-0.2,3.1-0.7C173.2,70.2,173.4,69.3,173.4,67.9"/>
		<path d="M191.2,66.4h-9.8c0,2.1,0.2,3.4,0.7,4.1s1.5,1,3.1,1c1.6,0,2.6-0.2,3.1-0.5c0.5-0.3,0.7-0.9,0.7-1.9v-0.4h2.1
			c0,1.8-0.5,3-1.5,3.7c-0.8,0.5-2.3,0.8-4.4,0.8c-2.3,0-3.8-0.5-4.7-1.5c-0.8-1-1.3-2.9-1.3-5.6c0-2.6,0.4-4.5,1.3-5.5
			c0.9-1,2.4-1.5,4.6-1.5c2.1,0,3.6,0.5,4.5,1.4c0.9,1,1.4,2.6,1.4,5V66.4z M189.1,64.8c0-1.6-0.3-2.7-0.8-3.3
			c-0.6-0.6-1.6-0.9-3-0.9c-1.5,0-2.5,0.3-3,0.9c-0.5,0.6-0.8,1.7-0.8,3.3H189.1z"/>
	</g>
	<text transform="matrix(1 0 0 1 296.9521 58.9515)" class="st2 st3">Credit</text>
	<rect x="273.7" y="21.4" class="st4" width="1.7" height="59.5"/>
</g>
</svg>
