<?xml version="1.0" encoding="utf-8"?>
<!-- Generator: Adobe Illustrator 22.0.0, SVG Export Plug-In . SVG Version: 6.00 Build 0)  -->
<svg width="100%" height="100%" version="1.1" id="Слой_1" xmlns="http://www.w3.org/2000/svg" xmlns:xlink="http://www.w3.org/1999/xlink" x="0px" y="0px"
	 viewBox="300 200 700 300" style="enable-background:new 0 0 1286 688.4;" xml:space="preserve">
<style type="text/css">
	.sts0{fill-rule:evenodd;fill:#de0713;}
	.sts1{fill:#FFFFFF;}
	.sts2{fill-rule:evenodd;clip-rule:evenodd;fill:#FFFFFF;}
</style>
<g>
	<path class="sts0" d="M417.3,466.9c-62.2,0-112.6-50.4-112.6-112.6c0-62.2,50.4-112.6,112.6-112.6h459.9
		c62.2,0,112.6,50.4,112.6,112.6c0,62.2-50.4,112.6-112.6,112.6H417.3z"/>
	<path class="sts1" d="M877.2,473.4H417.3c-65.7,0-119.1-53.4-119.1-119.1s53.4-119.1,119.1-119.1h459.9
		c65.7,0,119.1,53.4,119.1,119.1S942.9,473.4,877.2,473.4z M417.3,248.1c-58.5,0-106.1,47.6-106.1,106.1s47.6,106.1,106.1,106.1
		h459.9c58.5,0,106.1-47.6,106.1-106.1s-47.6-106.1-106.1-106.1H417.3z"/>
</g>
<path class="sts2" d="M357.1,370.3h39.5c1.1,4.6,3,7.9,5.9,9.9c2.9,2,7.1,3,12.8,3c4.7,0,8.5-0.8,11.2-2.5c2.7-1.6,4.1-3.9,4.1-6.7
	c0-4.6-5.7-8.3-17-11.2c-2.3-0.6-4-1-5.2-1.3c-9.3-2.4-16.7-4.6-22.3-6.6c-5.5-2-9.5-3.8-12.1-5.5c-4.9-3.5-8.5-7.7-10.9-12.6
	c-2.4-4.9-3.7-10.4-3.7-16.7c0-12.6,4.7-22.4,14.1-29.6c9.5-7.2,22.4-10.7,38.9-10.7c16.3,0,29,3.4,38.4,10.3
	c9.3,6.9,14.6,16.7,15.8,29.5h-38.5c-0.6-3.7-2.3-6.5-4.9-8.3c-2.7-1.8-6.5-2.8-11.4-2.8c-4.3,0-7.6,0.7-9.7,2.1
	c-2.1,1.4-3.2,3.6-3.2,6.5c0,4.2,5.5,7.7,16.6,10.5c1,0.3,1.7,0.5,2.2,0.6c1.6,0.4,4,1,7.3,1.8c14.7,3.7,24.3,7.1,28.8,10.1
	c5.6,3.7,9.7,7.9,12.3,12.7c2.6,4.8,3.9,10.4,3.9,16.8c0,14-4.9,24.7-14.6,32.2c-9.8,7.5-23.7,11.3-41.9,11.3
	c-16.8,0-30-3.8-39.9-11.3C363.8,394.5,358.3,383.9,357.1,370.3L357.1,370.3z M573.3,316.3v93.4h-33.9V396
	c-4.3,5.5-9.2,9.6-14.5,12.3c-5.4,2.7-11.4,4-18.2,4c-5.7,0-10.7-0.9-15.2-2.8c-4.5-1.9-8.3-4.7-11.3-8.4c-2.8-3.3-4.7-7.4-5.8-12.1
	c-1.1-4.8-1.7-12.8-1.7-24.1v-48.4h37.1v48.2c0,7.1,0.9,12,2.8,14.8c1.9,2.7,5.1,4.1,9.8,4.1c4.6,0,8.1-1.6,10.4-4.7
	c2.3-3.2,3.5-7.9,3.5-14.3v-48H573.3L573.3,316.3z M581.1,409.7V283.1h37.4v126.6H581.1L581.1,409.7z M693.3,363.2
	c0-7.3-1.2-12.8-3.7-16.3c-2.5-3.6-6.2-5.3-11.2-5.3c-5.4,0-9.4,1.7-11.9,5.2c-2.5,3.5-3.7,8.9-3.7,16.5c0,7.1,1.3,12.3,3.8,15.9
	c2.5,3.5,6.4,5.3,11.5,5.3c5,0,8.8-1.8,11.4-5.3C692,375.4,693.3,370.2,693.3,363.2L693.3,363.2z M626.8,447.2V316.3h32.9v11.9
	c3.7-5,7.9-8.6,12.8-10.9c4.9-2.3,10.7-3.5,17.4-3.5c12.1,0,21.8,4.5,29.3,13.6c7.5,9.1,11.2,21,11.2,35.8
	c0,15.1-3.7,27.2-11.2,36.2c-7.5,9-17.5,13.5-30.1,13.5c-5.8,0-10.8-1-15.1-2.9c-4.3-1.9-8.1-5-11.2-9v46.2
	C623.8,447.2,677,447.2,626.8,447.2L626.8,447.2z M795.4,368c-3.5,1.4-8.3,2.8-14.1,4.4c-9.3,2.5-13.9,5.8-13.9,9.9
	c0,2.6,0.9,4.7,2.8,6.2c1.8,1.5,4.4,2.2,7.8,2.2c6.2,0,10.7-1.4,13.5-4.3c2.8-2.9,4.2-7.4,4.2-13.7c0-1.3,0-2.3,0-3
	C795.6,369.1,795.5,368.6,795.4,368L795.4,368z M798.8,409.7H836V407c-1.3-0.9-2.3-2-3-3.3c-0.7-1.3-1-2.9-1-4.6v-52.1
	c0-7-0.9-12.4-2.7-16.1c-1.8-3.8-4.9-7.1-9.3-10.1c-3.6-2.4-8.7-4.3-15.1-5.8c-6.5-1.4-13.6-2.1-21.2-2.1c-16.3,0-28.7,2.7-37.1,8
	c-8.4,5.4-12.7,13.3-12.9,23.8H770c0.4-3.1,1.6-5.5,3.6-7c2.1-1.5,5-2.3,8.8-2.3c4.6,0,8,0.6,10.2,1.8c2.1,1.2,3.2,3.2,3.2,5.9
	c0,4.8-5.9,7.9-17.6,9.1c-3.4,0.4-6.1,0.6-8.1,0.9c-15.7,2-26.4,5.2-32.1,9.6c-5.7,4.4-8.5,11.2-8.5,20.4c0,9.5,2.9,16.8,8.6,22
	c5.8,5.2,13.9,7.8,24.4,7.8c6.9,0,13-1,18.5-3c5.5-2,10.6-5.1,15.3-9.3L798.8,409.7L798.8,409.7z M840.4,409.7V283.1h37.1v61.8
	l24.5-28.6h41.6l-34.7,34.5l39.4,59h-44.1l-20.3-33.4l-6.4,6.5v26.9H840.4z"/>
</svg>
